<svg width="16" height="16" viewBox="0 0 16 16" fill="none" xmlns="http://www.w3.org/2000/svg">
<circle cx="8" cy="8" r="8" fill="#8BE8CB"/>
<path d="M4.70748 10.6168C4.70748 10.8083 4.64355 10.975 4.5157 11.1169C4.38784 11.2588 4.21382 11.3297 3.99363 11.3297C3.77344 11.3297 3.59942 11.2588 3.47156 11.1169C3.34371 10.975 3.27979 10.8083 3.27979 10.6168C3.27979 10.4253 3.34371 10.2586 3.47156 10.1167C3.59942 9.97481 3.77344 9.90387 3.99363 9.90387C4.21382 9.90387 4.38784 9.97481 4.5157 10.1167C4.64355 10.2586 4.70748 10.4253 4.70748 10.6168ZM4.70748 6.37123C4.70748 6.56276 4.64355 6.72946 4.5157 6.87133C4.38784 7.0132 4.21382 7.08414 3.99363 7.08414C3.77344 7.08414 3.59942 7.0132 3.47156 6.87133C3.34371 6.72946 3.27979 6.56276 3.27979 6.37123C3.27979 6.1797 3.34371 6.013 3.47156 5.87112C3.59942 5.72925 3.77344 5.65831 3.99363 5.65831C4.21382 5.65831 4.38784 5.72925 4.5157 5.87112C4.64355 6.013 4.70748 6.1797 4.70748 6.37123Z" fill="#303633"/>
<path d="M6.93525 8.00986C6.93525 7.10187 6.80385 6.26128 6.54104 5.48807C6.27823 4.71486 5.89112 3.9984 5.3797 3.33869L6.0829 2.85986C6.63693 3.53376 7.08086 4.31052 7.4147 5.19013C7.75564 6.06265 7.92611 7.00256 7.92611 8.00986C7.92611 9.01716 7.75564 9.96062 7.4147 10.8402C7.08086 11.7128 6.63693 12.486 6.0829 13.1599L5.3797 12.681C5.89112 12.0213 6.27823 11.3049 6.54104 10.5317C6.80385 9.75845 6.93525 8.91785 6.93525 8.00986Z" fill="#303633"/>
<path d="M14.2998 7.39272C14.2714 7.53459 14.2252 7.69065 14.1613 7.8609C14.1045 8.03114 14.0192 8.1943 13.9056 8.35036C13.7919 8.49933 13.6463 8.62701 13.4687 8.73342C13.2983 8.83273 13.0887 8.88238 12.8401 8.88238C12.627 8.88238 12.4282 8.83982 12.2435 8.7547C12.0659 8.66957 11.8954 8.57736 11.7321 8.47805C11.5403 8.36455 11.3556 8.2546 11.178 8.14819C11.0005 8.03469 10.8122 7.97794 10.6134 7.97794C10.4997 7.97794 10.4038 8.00632 10.3257 8.06307C10.2476 8.11272 10.1801 8.18011 10.1233 8.26524C10.0664 8.34327 10.0203 8.43194 9.98474 8.53125C9.94923 8.62347 9.91727 8.71568 9.88885 8.8079L9.20697 8.61637C9.23538 8.48159 9.28155 8.32908 9.34548 8.15883C9.40941 7.98149 9.49464 7.81834 9.60119 7.66937C9.71483 7.51331 9.85689 7.38562 10.0274 7.28631C10.2049 7.17991 10.418 7.1267 10.6666 7.1267C10.8797 7.1267 11.075 7.16926 11.2526 7.25439C11.4373 7.33951 11.6113 7.43173 11.7747 7.53104C11.9665 7.64454 12.1511 7.75804 12.3287 7.87154C12.5063 7.97794 12.6945 8.03114 12.8934 8.03114C13.007 8.03114 13.1029 8.00632 13.1811 7.95666C13.2592 7.89991 13.3267 7.83252 13.3835 7.75449C13.4403 7.66937 13.4865 7.5807 13.522 7.48848C13.5575 7.38917 13.5895 7.2934 13.6179 7.20119L14.2998 7.39272Z" fill="#303633"/>
</svg>
